<svg width="115" height="26" viewBox="0 0 115 26" fill="none" xmlns="http://www.w3.org/2000/svg">
<path fill-rule="evenodd" clip-rule="evenodd" d="M22.4429 14.5834C22.4429 14.584 22.4421 14.5844 22.4417 14.5839L20.4115 12.6432L16.5568 9.10156C15.1118 7.77391 12.8854 7.79226 11.4624 9.14354C11.3023 9.2956 11.1361 9.45597 11.0768 9.66867C10.9971 9.95446 11.0626 10.2672 11.2733 10.5032L13.8005 12.6796C13.8022 12.681 13.8017 12.6837 13.7997 12.6845C13.7977 12.6853 13.7972 12.6878 13.7987 12.6893L16.5156 15.2857C16.8375 15.6438 16.8289 16.1741 16.4915 16.5183L10.91 21.8222C9.95624 22.7284 9.95453 24.2482 10.9062 25.1566C11.7944 26.0044 13.1917 26.006 14.0818 25.1602L22.4429 17.2156C23.2053 16.4896 23.2074 15.3129 22.4442 14.5828C22.4437 14.5824 22.4429 14.5827 22.4429 14.5834Z" fill="#16A34A"/>
<path fill-rule="evenodd" clip-rule="evenodd" d="M0.57141 11.2137C0.571085 11.2137 0.570682 11.2148 0.570917 11.215L2.60175 13.1512L6.45386 16.6884C7.90228 18.0185 10.1334 17.9994 11.5589 16.6449C11.7148 16.4967 11.8765 16.3407 11.9354 16.1338C11.9617 16.0414 11.9732 15.9448 11.9688 15.8475C11.9594 15.6414 11.8792 15.4449 11.7417 15.2911L9.21475 13.1115C9.21282 13.1098 9.21308 13.1068 9.21526 13.1054C9.21738 13.1042 9.2177 13.1012 9.21591 13.0995L6.49769 10.5051C6.17916 10.1487 6.18779 9.61675 6.52349 9.27413L12.1056 3.9672C13.0588 3.06106 13.0595 1.54166 12.1072 0.634624C11.2196 -0.210795 9.82501 -0.211643 8.9364 0.632696L0.572064 8.58033C-0.19047 9.30655 -0.190688 10.4855 0.57141 11.2137C0.571735 11.2137 0.571645 11.214 0.57141 11.2137Z" fill="#2563EB"/>
<path d="M29.5527 19.3272C30.6888 19.3272 31.5451 19.0728 32.1217 18.5641C32.7152 18.0384 33.0119 17.3686 33.0119 16.5547C33.0119 15.8594 32.783 15.2829 32.3252 14.825C31.8843 14.3672 31.1805 14.0026 30.214 13.7313L28.0011 13.07C27.2889 12.8495 26.6699 12.5697 26.1442 12.2306C25.6186 11.8745 25.2116 11.4421 24.9233 10.9334C24.652 10.4077 24.5163 9.79721 24.5163 9.10197C24.5163 7.79626 24.9911 6.77882 25.9408 6.04966C26.8904 5.30354 28.1537 4.93048 29.7307 4.93048C30.6464 4.93048 31.4603 5.03222 32.1726 5.23571C32.9017 5.42224 33.4698 5.66812 33.8768 5.97335C34.3007 6.27858 34.5126 6.60077 34.5126 6.93991C34.5126 7.16036 34.4533 7.36385 34.3346 7.55038C34.2159 7.71995 34.0633 7.85561 33.8768 7.95735C33.4528 7.6182 32.8763 7.32145 32.1471 7.06709C31.4349 6.81273 30.6549 6.68555 29.807 6.68555C28.8235 6.68555 28.0435 6.906 27.4669 7.34689C26.8904 7.77082 26.6021 8.35585 26.6021 9.10197C26.6021 9.69547 26.8056 10.1788 27.2125 10.5518C27.6365 10.9249 28.3148 11.2471 29.2474 11.5184L30.799 11.9762C32.1386 12.3493 33.19 12.8919 33.9531 13.6041C34.7331 14.3163 35.1231 15.2998 35.1231 16.5547C35.1231 17.8943 34.6314 18.9796 33.6478 19.8105C32.6813 20.6414 31.3162 21.0568 29.5527 21.0568C28.5183 21.0568 27.611 20.9466 26.831 20.7262C26.0679 20.4888 25.4659 20.2005 25.0251 19.8614C24.6011 19.5052 24.3892 19.1576 24.3892 18.8185C24.3892 18.5302 24.4739 18.2928 24.6435 18.1063C24.8301 17.9028 25.042 17.7587 25.2794 17.6739C25.6694 18.0469 26.2205 18.42 26.9328 18.793C27.645 19.1491 28.5183 19.3272 29.5527 19.3272Z" fill="#2563EB"/>
<path d="M38.0594 5.26114C38.0594 4.90504 38.1865 4.60829 38.4409 4.37089C38.6953 4.11653 39.009 3.98935 39.382 3.98935C39.7721 3.98935 40.0858 4.11653 40.3232 4.37089C40.5606 4.60829 40.6793 4.90504 40.6793 5.26114C40.6793 5.61725 40.5606 5.92248 40.3232 6.17684C40.0858 6.41424 39.7721 6.53294 39.382 6.53294C39.009 6.53294 38.6953 6.41424 38.4409 6.17684C38.1865 5.92248 38.0594 5.61725 38.0594 5.26114ZM38.3646 14.0111H40.3995V20.6753C40.3147 20.7092 40.1875 20.7431 40.0179 20.777C39.8484 20.8279 39.6618 20.8534 39.4583 20.8534C39.1022 20.8534 38.8309 20.7855 38.6444 20.6499C38.4579 20.4972 38.3646 20.2598 38.3646 19.9377V14.0111ZM40.3995 15.0031H38.3646V9.02566C38.4494 8.99174 38.5766 8.95783 38.7461 8.92391C38.9327 8.87304 39.1277 8.84761 39.3312 8.84761C39.6873 8.84761 39.9501 8.92391 40.1197 9.07653C40.3062 9.21219 40.3995 9.44959 40.3995 9.78874V15.0031Z" fill="#2563EB"/>
<path d="M44.3983 14.0111H46.4331V17.5212C46.4331 18.1995 46.6282 18.6828 47.0182 18.9711C47.4082 19.2424 47.9423 19.3781 48.6206 19.3781C48.9089 19.3781 49.2311 19.3272 49.5872 19.2255C49.9433 19.1237 50.2401 19.005 50.4775 18.8694C50.5792 18.9711 50.6725 19.0983 50.7572 19.2509C50.842 19.4035 50.8844 19.5816 50.8844 19.785C50.8844 20.1581 50.664 20.4633 50.2231 20.7007C49.7822 20.9381 49.1717 21.0568 48.3917 21.0568C47.2047 21.0568 46.2381 20.794 45.492 20.2683C44.7629 19.7427 44.3983 18.8694 44.3983 17.6484V14.0111ZM45.4411 10.9079V9.22915H50.6046C50.6555 9.29697 50.7064 9.4072 50.7572 9.55981C50.8081 9.71243 50.8336 9.87352 50.8336 10.0431C50.8336 10.3144 50.7657 10.5264 50.6301 10.679C50.4944 10.8316 50.3079 10.9079 50.0705 10.9079H45.4411ZM46.4331 14.7742H44.3983V5.56638C44.4831 5.53246 44.6102 5.49855 44.7798 5.46463C44.9663 5.41376 45.1614 5.38832 45.3648 5.38832C45.7209 5.38832 45.9838 5.46463 46.1534 5.61725C46.3399 5.75291 46.4331 5.98183 46.4331 6.30402V14.7742Z" fill="#2563EB"/>
<path d="M54.2018 16.1477L54.1001 14.5452L61.7817 13.5024C61.7139 12.5697 61.3917 11.8066 60.8152 11.2131C60.2386 10.6027 59.4416 10.2975 58.4242 10.2975C57.3728 10.2975 56.4995 10.679 55.8043 11.4421C55.126 12.1882 54.7868 13.265 54.7868 14.6724V15.232C54.9056 16.5886 55.3464 17.623 56.1095 18.3352C56.8896 19.0304 57.9494 19.3781 59.289 19.3781C60.0012 19.3781 60.6456 19.2594 61.2221 19.022C61.7987 18.7846 62.2565 18.5302 62.5957 18.2589C62.7822 18.3776 62.9263 18.5217 63.0281 18.6913C63.1468 18.8439 63.2061 19.022 63.2061 19.2255C63.2061 19.5476 63.0196 19.8529 62.6465 20.1411C62.2904 20.4125 61.8072 20.6329 61.1967 20.8025C60.6032 20.9721 59.9334 21.0568 59.1873 21.0568C57.8816 21.0568 56.7454 20.8194 55.7789 20.3446C54.8292 19.8698 54.0916 19.1661 53.5659 18.2335C53.0572 17.2838 52.8029 16.1308 52.8029 14.7742C52.8029 13.8076 52.9385 12.9513 53.2098 12.2051C53.4981 11.4421 53.8881 10.7977 54.3799 10.272C54.8886 9.74634 55.4906 9.34785 56.1858 9.07653C56.8811 8.78826 57.6357 8.64412 58.4496 8.64412C59.484 8.64412 60.3912 8.86456 61.1713 9.30545C61.9683 9.74634 62.5872 10.3653 63.0281 11.1623C63.4859 11.9423 63.7149 12.841 63.7149 13.8585C63.7149 14.2315 63.6301 14.5029 63.4605 14.6724C63.2909 14.825 63.0535 14.9183 62.7483 14.9522L54.2018 16.1477Z" fill="#2563EB"/>
<path d="M75.4295 11.849V13.5278H68.4346V11.849H75.4295ZM72.5043 13.5278L73.3183 12.256C74.4714 12.256 75.4295 12.451 76.1926 12.841C76.9556 13.2141 77.5237 13.7143 77.8968 14.3418C78.2868 14.9692 78.4818 15.6729 78.4818 16.4529C78.4818 17.9961 77.9222 19.1407 76.803 19.8868C75.7008 20.6329 74.1238 21.006 72.0719 21.006C71.6141 21.006 71.1562 20.989 70.6984 20.9551C70.2405 20.9381 69.7912 20.8957 69.3503 20.8279C68.9094 20.7601 68.4855 20.6753 68.0785 20.5736C67.3663 20.3701 67.0102 19.9801 67.0102 19.4035V6.38032C67.0102 6.10901 67.078 5.89704 67.2137 5.74443C67.3663 5.59181 67.5783 5.48159 67.8496 5.41376C68.4261 5.24419 69.0366 5.13397 69.681 5.08309C70.3423 5.01526 71.046 4.98135 71.7921 4.98135C73.7083 4.98135 75.2006 5.32897 76.2689 6.02422C77.3372 6.70251 77.8713 7.74538 77.8713 9.15284C77.8713 9.86504 77.6933 10.5264 77.3372 11.1368C76.998 11.7303 76.4384 12.2136 75.6584 12.5867C74.8953 12.9428 73.8694 13.1208 72.5807 13.1208L72.3517 11.849C73.4709 11.849 74.3188 11.6201 74.8953 11.1623C75.4719 10.6875 75.7601 10.0346 75.7601 9.20371C75.7601 8.35585 75.421 7.72843 74.7427 7.32145C74.0814 6.89752 73.0978 6.68555 71.7921 6.68555C71.2156 6.68555 70.7069 6.71099 70.266 6.76186C69.8251 6.79578 69.4181 6.84665 69.0451 6.91448V19.022C69.452 19.1068 69.9184 19.1746 70.444 19.2255C70.9867 19.2763 71.5293 19.3018 72.0719 19.3018C73.4794 19.3018 74.5477 19.0644 75.2769 18.5896C76.006 18.1148 76.3706 17.3856 76.3706 16.4021C76.3706 15.5203 76.0399 14.825 75.3786 14.3163C74.7342 13.7906 73.7761 13.5278 72.5043 13.5278Z" fill="#16A34A"/>
<path d="M81.7567 16.4275V14.1128H83.7915V16.3258C83.7915 17.411 84.0798 18.1911 84.6563 18.6659C85.2329 19.1407 86.0299 19.3781 87.0473 19.3781C87.7256 19.3781 88.3022 19.3102 88.777 19.1746C89.2518 19.022 89.6248 18.8694 89.8961 18.7167V14.1128H91.931V18.6404C91.931 18.9965 91.8801 19.2848 91.7784 19.5052C91.6936 19.7087 91.4732 19.9122 91.1171 20.1157C90.744 20.3362 90.2099 20.5481 89.5146 20.7516C88.8194 20.9551 87.9884 21.0568 87.0219 21.0568C85.9027 21.0568 84.9446 20.8957 84.1476 20.5736C83.3676 20.2344 82.7741 19.7257 82.3671 19.0474C81.9601 18.3522 81.7567 17.4789 81.7567 16.4275ZM91.931 15.4355H89.8961V9.02566C89.9809 8.99174 90.1081 8.95783 90.2777 8.92391C90.4642 8.87304 90.6507 8.84761 90.8373 8.84761C91.2103 8.84761 91.4816 8.92391 91.6512 9.07653C91.8377 9.21219 91.931 9.44959 91.931 9.78874V15.4355ZM83.7915 15.4355H81.7567V9.02566C81.8414 8.99174 81.9686 8.95783 82.1382 8.92391C82.3247 8.87304 82.5197 8.84761 82.7232 8.84761C83.0793 8.84761 83.3422 8.92391 83.5117 9.07653C83.6983 9.21219 83.7915 9.44959 83.7915 9.78874V15.4355Z" fill="#16A34A"/>
<path d="M95.5634 5.26114C95.5634 4.90504 95.6906 4.60829 95.9449 4.37089C96.1993 4.11653 96.513 3.98935 96.886 3.98935C97.2761 3.98935 97.5898 4.11653 97.8272 4.37089C98.0646 4.60829 98.1833 4.90504 98.1833 5.26114C98.1833 5.61725 98.0646 5.92248 97.8272 6.17684C97.5898 6.41424 97.2761 6.53294 96.886 6.53294C96.513 6.53294 96.1993 6.41424 95.9449 6.17684C95.6906 5.92248 95.5634 5.61725 95.5634 5.26114ZM95.8686 14.0111H97.9035V20.6753C97.8187 20.7092 97.6915 20.7431 97.5219 20.777C97.3524 20.8279 97.1658 20.8534 96.9623 20.8534C96.6062 20.8534 96.3349 20.7855 96.1484 20.6499C95.9619 20.4972 95.8686 20.2598 95.8686 19.9377V14.0111ZM97.9035 15.0031H95.8686V9.02566C95.9534 8.99174 96.0806 8.95783 96.2501 8.92391C96.4367 8.87304 96.6317 8.84761 96.8352 8.84761C97.1913 8.84761 97.4541 8.92391 97.6237 9.07653C97.8102 9.21219 97.9035 9.44959 97.9035 9.78874V15.0031Z" fill="#16A34A"/>
<path d="M102.13 14.0111L104.165 14.3163V20.6753C104.08 20.7092 103.953 20.7431 103.783 20.777C103.614 20.8279 103.427 20.8534 103.224 20.8534C102.868 20.8534 102.596 20.7855 102.41 20.6499C102.223 20.4972 102.13 20.2598 102.13 19.9377V14.0111ZM104.165 15.2829L102.13 15.0031V4.24371C102.215 4.20979 102.342 4.17588 102.512 4.14197C102.698 4.09109 102.885 4.06566 103.071 4.06566C103.444 4.06566 103.716 4.14197 103.885 4.29458C104.072 4.43024 104.165 4.65916 104.165 4.98135V15.2829Z" fill="#16A34A"/>
<path d="M108.212 14.0111H110.246V17.5212C110.246 18.1995 110.441 18.6828 110.831 18.9711C111.221 19.2424 111.756 19.3781 112.434 19.3781C112.722 19.3781 113.044 19.3272 113.401 19.2255C113.757 19.1237 114.053 19.005 114.291 18.8694C114.392 18.9711 114.486 19.0983 114.571 19.2509C114.655 19.4035 114.698 19.5816 114.698 19.785C114.698 20.1581 114.477 20.4633 114.036 20.7007C113.596 20.9381 112.985 21.0568 112.205 21.0568C111.018 21.0568 110.051 20.794 109.305 20.2683C108.576 19.7427 108.212 18.8694 108.212 17.6484V14.0111ZM109.254 10.9079V9.22915H114.418C114.469 9.29697 114.52 9.4072 114.571 9.55981C114.621 9.71243 114.647 9.87352 114.647 10.0431C114.647 10.3144 114.579 10.5264 114.443 10.679C114.308 10.8316 114.121 10.9079 113.884 10.9079H109.254ZM110.246 14.7742H108.212V5.56638C108.296 5.53246 108.424 5.49855 108.593 5.46463C108.78 5.41376 108.975 5.38832 109.178 5.38832C109.534 5.38832 109.797 5.46463 109.967 5.61725C110.153 5.75291 110.246 5.98183 110.246 6.30402V14.7742Z" fill="#16A34A"/>
</svg>
